<?xml version="1.0" encoding="UTF-8"?>
<!DOCTYPE svg PUBLIC "-//W3C//DTD SVG 1.1//EN" "http://www.w3.org/Graphics/SVG/1.1/DTD/svg11.dtd">
<svg xmlns="http://www.w3.org/2000/svg" version="1.1" width="1000px" height="600px" style="shape-rendering:geometricPrecision; text-rendering:geometricPrecision; image-rendering:optimizeQuality; fill-rule:evenodd; clip-rule:evenodd" xmlns:xlink="http://www.w3.org/1999/xlink">
<g><path style="opacity:1" fill="#aa0000" d="M -0.5,-0.5 C 332.833,-0.5 666.167,-0.5 999.5,-0.5C 999.5,199.5 999.5,399.5 999.5,599.5C 666.167,599.5 332.833,599.5 -0.5,599.5C -0.5,399.5 -0.5,199.5 -0.5,-0.5 Z"/></g>
<g><path style="opacity:1" fill="#010000" d="M 124.5,190.5 C 196.833,190.5 269.167,190.5 341.5,190.5C 341.5,263.167 341.5,335.833 341.5,408.5C 269.167,408.5 196.833,408.5 124.5,408.5C 124.5,335.833 124.5,263.167 124.5,190.5 Z"/></g>
<g><path style="opacity:1" fill="#f0f0f0" d="M 226.5,256.5 C 227.043,256.44 227.376,256.107 227.5,255.5C 210.513,254.501 193.513,254.167 176.5,254.5C 176.5,253.167 176.5,251.833 176.5,250.5C 195.512,250.167 214.512,250.5 233.5,251.5C 221.568,283.461 209.735,315.461 198,347.5C 186.265,315.461 174.432,283.461 162.5,251.5C 164.045,250.548 165.712,250.215 167.5,250.5C 177.36,278.912 187.527,307.246 198,335.5C 207.514,309.146 217.014,282.812 226.5,256.5 Z"/></g>
<g><path style="opacity:1" fill="#d8d8d8" d="M 276.5,251.5 C 267.833,251.5 259.167,251.5 250.5,251.5C 250.5,283.5 250.5,315.5 250.5,347.5C 251.5,347.5 252.5,347.5 253.5,347.5C 253.5,347.833 253.5,348.167 253.5,348.5C 252.167,348.5 250.833,348.5 249.5,348.5C 249.5,315.833 249.5,283.167 249.5,250.5C 258.682,250.173 267.682,250.507 276.5,251.5 Z"/></g>
<g><path style="opacity:1" fill="#f7f7f7" d="M 276.5,251.5 C 299.229,254.307 307.396,266.64 301,288.5C 296.836,293.99 291.502,297.99 285,300.5C 282.659,299.993 282.159,298.826 283.5,297C 296.011,292.48 301.178,283.647 299,270.5C 296.33,263.165 291.163,258.665 283.5,257C 280.522,256.304 277.522,255.804 274.5,255.5C 267.687,254.509 260.687,254.175 253.5,254.5C 253.5,285.5 253.5,316.5 253.5,347.5C 252.5,347.5 251.5,347.5 250.5,347.5C 250.5,315.5 250.5,283.5 250.5,251.5C 259.167,251.5 267.833,251.5 276.5,251.5 Z"/></g>
<g><path style="opacity:1" fill="#faeeed" d="M 700.5,255.5 C 701.043,255.44 701.376,255.107 701.5,254.5C 688.183,253.501 674.85,253.167 661.5,253.5C 661.5,252.5 661.5,251.5 661.5,250.5C 676.167,250.5 690.833,250.5 705.5,250.5C 697.099,275.703 688.099,300.703 678.5,325.5C 668.901,300.703 659.901,275.703 651.5,250.5C 653.124,250.36 654.29,251.027 655,252.5C 662.541,273.626 670.375,294.626 678.5,315.5C 686.398,295.705 693.731,275.705 700.5,255.5 Z"/></g>
<g><path style="opacity:1" fill="#cd6969" d="M 661.5,253.5 C 674.85,253.167 688.183,253.501 701.5,254.5C 701.376,255.107 701.043,255.44 700.5,255.5C 687.5,254.833 674.5,254.167 661.5,253.5 Z"/></g>
<g><path style="opacity:1" fill="#575757" d="M 176.5,254.5 C 193.513,254.167 210.513,254.501 227.5,255.5C 227.376,256.107 227.043,256.44 226.5,256.5C 209.833,255.833 193.167,255.167 176.5,254.5 Z"/></g>
<g><path style="opacity:1" fill="#525252" d="M 274.5,255.5 C 267.833,255.5 261.167,255.5 254.5,255.5C 254.831,286.671 254.498,317.671 253.5,348.5C 253.5,348.167 253.5,347.833 253.5,347.5C 253.5,316.5 253.5,285.5 253.5,254.5C 260.687,254.175 267.687,254.509 274.5,255.5 Z"/></g>
<g><path style="opacity:1" fill="#f9e9e9" d="M 468.5,262.5 C 491.945,260.494 502.945,271.327 501.5,295C 501.205,323.644 487.538,333.311 460.5,324C 452.504,315.847 449.171,306.014 450.5,294.5C 449.446,283.92 452.446,274.753 459.5,267C 462.592,265.454 465.592,263.954 468.5,262.5 Z"/></g>
<g><path style="opacity:1" fill="#f9ebeb" d="M 583.5,262.5 C 590.373,261.965 597.04,262.799 603.5,265C 606.645,266.978 609.312,269.478 611.5,272.5C 603.006,280.158 594.34,287.658 585.5,295C 583.833,295.667 582.167,295.667 580.5,295C 589.5,287.333 598.5,279.667 607.5,272C 599.397,265.727 590.397,264.06 580.5,267C 573.891,270.03 570.058,275.197 569,282.5C 568.333,289.833 568.333,297.167 569,304.5C 569.804,317.472 576.637,324.139 589.5,324.5C 596.27,324.688 602.27,322.688 607.5,318.5C 610.079,319.888 610.079,321.388 607.5,323C 597.467,328.159 587.134,328.826 576.5,325C 570.597,320.707 567.097,314.874 566,307.5C 565.105,297.439 565.438,287.439 567,277.5C 570.206,269.786 575.706,264.786 583.5,262.5 Z"/></g>
<g><path style="opacity:1" fill="#f8e7e7" d="M 733.5,262.5 C 741.944,261.756 749.944,263.256 757.5,267C 759.543,268.708 761.21,270.708 762.5,273C 753.833,280.333 745.167,287.667 736.5,295C 734.5,295.667 732.5,295.667 730.5,295C 739.5,287.5 748.5,280 757.5,272.5C 755.707,269.434 753.04,267.6 749.5,267C 731.917,262.356 721.75,268.856 719,286.5C 717.123,297.871 718.956,308.538 724.5,318.5C 731.119,324.181 738.786,326.015 747.5,324C 751.719,323.209 755.386,321.375 758.5,318.5C 759.308,318.808 759.975,319.308 760.5,320C 754.89,325.619 748.056,328.119 740,327.5C 727.812,327.981 720.145,322.315 717,310.5C 714.708,299.065 715.041,287.732 718,276.5C 720.844,269.151 726.011,264.484 733.5,262.5 Z"/></g>
<g><path style="opacity:1" fill="#e9b9b8" d="M 874.5,264.5 C 858.486,264.167 842.486,264.501 826.5,265.5C 833.989,266.167 841.322,266.833 848.5,267.5C 840.833,267.5 833.167,267.5 825.5,267.5C 825.5,266.167 825.5,264.833 825.5,263.5C 842.009,263.17 858.342,263.504 874.5,264.5 Z"/></g>
<g><path style="opacity:1" fill="#e2abab" d="M 416.5,264.5 C 409.833,264.5 403.167,264.5 396.5,264.5C 396.5,292.5 396.5,320.5 396.5,348.5C 395.502,320.338 395.169,292.005 395.5,263.5C 402.687,263.175 409.687,263.509 416.5,264.5 Z"/></g>
<g><path style="opacity:1" fill="#fcf6f6" d="M 416.5,264.5 C 435.277,266.77 441.443,276.77 435,294.5C 431.351,298.659 426.851,301.326 421.5,302.5C 421.281,301.325 421.614,300.325 422.5,299.5C 426.629,297.683 430.129,295.016 433,291.5C 437.061,276.384 431.227,268.384 415.5,267.5C 410.025,266.511 404.358,266.178 398.5,266.5C 398.5,293.833 398.5,321.167 398.5,348.5C 397.833,348.5 397.167,348.5 396.5,348.5C 396.5,320.5 396.5,292.5 396.5,264.5C 403.167,264.5 409.833,264.5 416.5,264.5 Z"/></g>
<g><path style="opacity:1" fill="#fefefe" d="M 522.5,323.5 C 533.5,323.5 544.5,323.5 555.5,323.5C 555.5,324.5 555.5,325.5 555.5,326.5C 543.5,326.5 531.5,326.5 519.5,326.5C 519.167,305.823 519.5,285.156 520.5,264.5C 521.167,284.329 521.833,303.996 522.5,323.5 Z"/></g>
<g><path style="opacity:1" fill="#e5aead" d="M 522.5,323.5 C 521.833,303.996 521.167,284.329 520.5,264.5C 519.5,285.156 519.167,305.823 519.5,326.5C 518.503,305.673 518.169,284.673 518.5,263.5C 519.833,263.5 521.167,263.5 522.5,263.5C 522.5,283.5 522.5,303.5 522.5,323.5 Z"/></g>
<g><path style="opacity:1" fill="#e7b6b6" d="M 796.5,264.5 C 790.5,264.5 784.5,264.5 778.5,264.5C 778.5,285.167 778.5,305.833 778.5,326.5C 777.503,305.673 777.169,284.673 777.5,263.5C 784.022,263.177 790.355,263.51 796.5,264.5 Z"/></g>
<g><path style="opacity:1" fill="#fbf3f3" d="M 796.5,264.5 C 812.64,265.444 818.14,273.444 813,288.5C 810.443,291.192 807.609,293.525 804.5,295.5C 809.167,305.5 813.833,315.5 818.5,325.5C 817.349,326.731 816.183,326.731 815,325.5C 810.167,315.167 805.333,304.833 800.5,294.5C 805.803,292.363 809.637,288.697 812,283.5C 813.463,277.26 811.297,272.76 805.5,270C 801.622,268.53 797.622,267.697 793.5,267.5C 789.366,266.515 785.032,266.182 780.5,266.5C 780.5,286.5 780.5,306.5 780.5,326.5C 779.833,326.5 779.167,326.5 778.5,326.5C 778.5,305.833 778.5,285.167 778.5,264.5C 784.5,264.5 790.5,264.5 796.5,264.5 Z"/></g>
<g><path style="opacity:1" fill="#fefffe" d="M 874.5,264.5 C 874.5,265.167 874.5,265.833 874.5,266.5C 866.833,266.5 859.167,266.5 851.5,266.5C 851.5,286.5 851.5,306.5 851.5,326.5C 850.5,326.5 849.5,326.5 848.5,326.5C 848.5,306.833 848.5,287.167 848.5,267.5C 841.322,266.833 833.989,266.167 826.5,265.5C 842.486,264.501 858.486,264.167 874.5,264.5 Z"/></g>
<g><path style="opacity:1" fill="#ab0603" d="M 469.5,265.5 C 478.532,264.124 486.365,266.458 493,272.5C 494.893,275.618 496.226,278.951 497,282.5C 497.667,290.833 497.667,299.167 497,307.5C 492.861,321.83 483.361,327.33 468.5,324C 460.599,321.403 456.099,315.903 455,307.5C 452.757,297.399 453.09,287.399 456,277.5C 458.833,271.493 463.333,267.493 469.5,265.5 Z"/></g>
<g><path style="opacity:1" fill="#db9595" d="M 415.5,267.5 C 410.167,267.5 404.833,267.5 399.5,267.5C 399.831,294.672 399.498,321.672 398.5,348.5C 398.5,321.167 398.5,293.833 398.5,266.5C 404.358,266.178 410.025,266.511 415.5,267.5 Z"/></g>
<g><path style="opacity:1" fill="#d88a89" d="M 793.5,267.5 C 789.5,267.5 785.5,267.5 781.5,267.5C 781.83,287.34 781.497,307.007 780.5,326.5C 780.5,306.5 780.5,286.5 780.5,266.5C 785.032,266.182 789.366,266.515 793.5,267.5 Z"/></g>
<g><path style="opacity:1" fill="#c04341" d="M 874.5,266.5 C 867.352,267.492 860.019,267.825 852.5,267.5C 852.83,287.34 852.497,307.007 851.5,326.5C 851.5,306.5 851.5,286.5 851.5,266.5C 859.167,266.5 866.833,266.5 874.5,266.5 Z"/></g>
</svg>
