<?xml version="1.0" encoding="UTF-8"?>
<!DOCTYPE svg PUBLIC "-//W3C//DTD SVG 1.1//EN" "http://www.w3.org/Graphics/SVG/1.1/DTD/svg11.dtd">
<svg xmlns="http://www.w3.org/2000/svg" version="1.1" width="1353px" height="216px" style="shape-rendering:geometricPrecision; text-rendering:geometricPrecision; image-rendering:optimizeQuality; fill-rule:evenodd; clip-rule:evenodd" xmlns:xlink="http://www.w3.org/1999/xlink">
<g><path style="opacity:0.919" fill="#00364a" d="M 165.5,29.5 C 169.5,29.5 173.5,29.5 177.5,29.5C 177.5,71.8333 177.5,114.167 177.5,156.5C 173.5,156.5 169.5,156.5 165.5,156.5C 165.5,114.167 165.5,71.8333 165.5,29.5 Z"/></g>
<g><path style="opacity:0.99" fill="#00364a" d="M 490.5,34.5 C 532.25,35.0233 554.916,56.0233 558.5,97.5C 556.96,130.869 539.96,151.369 507.5,159C 476.184,163.095 453.351,151.262 439,123.5C 428.549,94.4014 434.382,69.2347 456.5,48C 466.7,40.4377 478.033,35.9377 490.5,34.5 Z M 491.5,46.5 C 524.459,47.4977 542.126,64.4977 544.5,97.5C 543.479,123.079 530.813,139.579 506.5,147C 475.737,150.546 456.571,137.379 449,107.5C 445.245,81.1735 455.078,62.0068 478.5,50C 482.919,48.6476 487.252,47.481 491.5,46.5 Z"/></g>
<g><path style="opacity:0.994" fill="#00364b" d="M 346.5,37.5 C 359.504,37.3334 372.504,37.5001 385.5,38C 413.877,40.5772 424.71,55.7439 418,83.5C 412.572,93.6437 404.072,99.477 392.5,101C 381.533,102.209 370.533,102.709 359.5,102.5C 359.5,120.5 359.5,138.5 359.5,156.5C 355.167,156.5 350.833,156.5 346.5,156.5C 346.5,116.833 346.5,77.1667 346.5,37.5 Z M 359.5,49.5 C 366.841,49.3337 374.174,49.5003 381.5,50C 401.536,50.6391 409.036,60.4725 404,79.5C 401.011,83.4906 397.178,86.324 392.5,88C 381.6,90.0038 370.6,90.8371 359.5,90.5C 359.5,76.8333 359.5,63.1667 359.5,49.5 Z"/></g>
<g><path style="opacity:0.998" fill="#00374b" d="M 581.5,37.5 C 585.833,37.5 590.167,37.5 594.5,37.5C 594.5,73.1667 594.5,108.833 594.5,144.5C 612.503,144.333 630.503,144.5 648.5,145C 649.46,148.73 649.793,152.563 649.5,156.5C 626.833,156.5 604.167,156.5 581.5,156.5C 581.5,116.833 581.5,77.1667 581.5,37.5 Z"/></g>
<g><path style="opacity:0.994" fill="#00364b" d="M 665.5,37.5 C 690.167,37.5 714.833,37.5 739.5,37.5C 739.5,41.5 739.5,45.5 739.5,49.5C 719.167,49.5 698.833,49.5 678.5,49.5C 678.5,62.8333 678.5,76.1667 678.5,89.5C 697.5,89.5 716.5,89.5 735.5,89.5C 735.5,93.5 735.5,97.5 735.5,101.5C 716.5,101.5 697.5,101.5 678.5,101.5C 678.5,115.833 678.5,130.167 678.5,144.5C 699.5,144.5 720.5,144.5 741.5,144.5C 741.5,148.5 741.5,152.5 741.5,156.5C 716.167,156.5 690.833,156.5 665.5,156.5C 665.5,116.833 665.5,77.1667 665.5,37.5 Z"/></g>
<g><path style="opacity:0.991" fill="#00374b" d="M 793.5,37.5 C 798.43,37.1975 803.263,37.5308 808,38.5C 820.333,71.1667 832.667,103.833 845,136.5C 857.931,103.873 870.765,71.2062 883.5,38.5C 888.167,37.1667 892.833,37.1667 897.5,38.5C 882.456,77.8019 867.123,116.969 851.5,156C 847.167,156.667 842.833,156.667 838.5,156C 823.08,116.659 808.08,77.1591 793.5,37.5 Z"/></g>
<g><path style="opacity:0.994" fill="#00364b" d="M 912.5,37.5 C 937.167,37.5 961.833,37.5 986.5,37.5C 986.5,41.5 986.5,45.5 986.5,49.5C 966.167,49.5 945.833,49.5 925.5,49.5C 925.5,62.8333 925.5,76.1667 925.5,89.5C 944.5,89.5 963.5,89.5 982.5,89.5C 982.5,93.5 982.5,97.5 982.5,101.5C 963.5,101.5 944.5,101.5 925.5,101.5C 925.5,115.833 925.5,130.167 925.5,144.5C 946.5,144.5 967.5,144.5 988.5,144.5C 988.5,148.5 988.5,152.5 988.5,156.5C 963.167,156.5 937.833,156.5 912.5,156.5C 912.5,116.833 912.5,77.1667 912.5,37.5 Z"/></g>
<g><path style="opacity:0.993" fill="#00364b" d="M 1011.5,37.5 C 1025.17,37.3334 1038.84,37.5001 1052.5,38C 1080.56,40.3005 1091.4,55.1338 1085,82.5C 1079.37,93.7723 1070.21,99.9389 1057.5,101C 1068.83,119.333 1080.17,137.667 1091.5,156C 1085.8,156.83 1080.14,156.663 1074.5,155.5C 1064.54,137.753 1054.21,120.253 1043.5,103C 1037.18,102.5 1030.84,102.334 1024.5,102.5C 1024.5,120.5 1024.5,138.5 1024.5,156.5C 1020.17,156.5 1015.83,156.5 1011.5,156.5C 1011.5,116.833 1011.5,77.1667 1011.5,37.5 Z M 1024.5,49.5 C 1032.51,49.3336 1040.51,49.5003 1048.5,50C 1068.54,50.6391 1076.04,60.4725 1071,79.5C 1068.01,83.4906 1064.18,86.324 1059.5,88C 1047.93,90.0511 1036.27,90.8844 1024.5,90.5C 1024.5,76.8333 1024.5,63.1667 1024.5,49.5 Z"/></g>
<g><path style="opacity:0.997" fill="#00364a" d="M 1097.5,37.5 C 1128.17,37.5 1158.83,37.5 1189.5,37.5C 1189.5,41.5 1189.5,45.5 1189.5,49.5C 1176.17,49.5 1162.83,49.5 1149.5,49.5C 1149.5,85.1667 1149.5,120.833 1149.5,156.5C 1145.17,156.5 1140.83,156.5 1136.5,156.5C 1136.5,120.833 1136.5,85.1667 1136.5,49.5C 1123.5,49.5 1110.5,49.5 1097.5,49.5C 1097.5,45.5 1097.5,41.5 1097.5,37.5 Z"/></g>
<g><path style="opacity:0.989" fill="#00364a" d="M 237.5,75.5 C 265.061,77.7352 278.061,92.7352 276.5,120.5C 254.831,120.333 233.164,120.5 211.5,121C 216.235,142.202 229.235,150.535 250.5,146C 256.027,143.478 260.694,139.811 264.5,135C 265.167,134.333 265.833,134.333 266.5,135C 268.373,137.209 270.54,139.042 273,140.5C 273.667,141.5 273.667,142.5 273,143.5C 261.711,156.486 247.545,161.319 230.5,158C 213.924,153.757 203.758,143.257 200,126.5C 196.515,97.3952 209.015,80.3952 237.5,75.5 Z M 237.5,86.5 C 253.578,86.5808 262.245,94.5808 263.5,110.5C 246.5,110.5 229.5,110.5 212.5,110.5C 214.185,100.645 219.518,93.4779 228.5,89C 231.678,88.3405 234.678,87.5072 237.5,86.5 Z"/></g>
<g><path style="opacity:1" fill="#959695" d="M -0.5,215.5 C -0.5,215.167 -0.5,214.833 -0.5,214.5C 31.671,214.168 63.671,214.502 95.5,215.5C 63.5,215.5 31.5,215.5 -0.5,215.5 Z"/></g>
</svg>
