<?xml version="1.0" encoding="UTF-8"?>
<!DOCTYPE svg PUBLIC "-//W3C//DTD SVG 1.1//EN" "http://www.w3.org/Graphics/SVG/1.1/DTD/svg11.dtd">
<svg xmlns="http://www.w3.org/2000/svg" version="1.1" width="1353px" height="216px" style="shape-rendering:geometricPrecision; text-rendering:geometricPrecision; image-rendering:optimizeQuality; fill-rule:evenodd; clip-rule:evenodd" xmlns:xlink="http://www.w3.org/1999/xlink">
<g><path style="opacity:0.755" fill="#000000" d="M 408.5,45.5 C 415.391,49.8769 421.891,54.8769 428,60.5C 428.499,64.4862 428.666,68.4862 428.5,72.5C 426.692,72.5086 425.025,72.0086 423.5,71C 419.068,68.0353 414.568,65.202 410,62.5C 403.811,66.5108 397.311,69.8442 390.5,72.5C 390.334,68.4862 390.501,64.4862 391,60.5C 397.184,55.8373 403.018,50.8373 408.5,45.5 Z"/></g>
<g><path style="opacity:0.889" fill="#000000" d="M 299.5,48.5 C 313.504,48.3334 327.504,48.5001 341.5,49C 361.249,53.7717 370.916,66.4384 370.5,87C 370.98,105.082 362.98,117.415 346.5,124C 336.592,125.911 326.592,126.744 316.5,126.5C 316.5,139.833 316.5,153.167 316.5,166.5C 310.833,166.5 305.167,166.5 299.5,166.5C 299.5,127.167 299.5,87.8333 299.5,48.5 Z M 316.5,63.5 C 326.224,62.8804 335.557,64.3804 344.5,68C 352.247,76.1591 354.414,85.6591 351,96.5C 348.737,103.097 344.237,107.264 337.5,109C 330.54,110.087 323.54,110.587 316.5,110.5C 316.5,94.8333 316.5,79.1667 316.5,63.5 Z"/></g>
<g><path style="opacity:0.898" fill="#000000" d="M 457.5,48.5 C 463.167,48.5 468.833,48.5 474.5,48.5C 474.5,82.8333 474.5,117.167 474.5,151.5C 489.167,151.5 503.833,151.5 518.5,151.5C 518.5,156.5 518.5,161.5 518.5,166.5C 498.167,166.5 477.833,166.5 457.5,166.5C 457.5,127.167 457.5,87.8333 457.5,48.5 Z"/></g>
<g><path style="opacity:0.902" fill="#000000" d="M 529.5,48.5 C 550.833,48.5 572.167,48.5 593.5,48.5C 593.5,53.5 593.5,58.5 593.5,63.5C 577.833,63.5 562.167,63.5 546.5,63.5C 546.5,74.5 546.5,85.5 546.5,96.5C 558.833,96.5 571.167,96.5 583.5,96.5C 583.5,101.833 583.5,107.167 583.5,112.5C 571.167,112.5 558.833,112.5 546.5,112.5C 546.5,125.5 546.5,138.5 546.5,151.5C 562.5,151.5 578.5,151.5 594.5,151.5C 594.5,156.5 594.5,161.5 594.5,166.5C 572.833,166.5 551.167,166.5 529.5,166.5C 529.5,127.167 529.5,87.8333 529.5,48.5 Z"/></g>
<g><path style="opacity:0.865" fill="#000000" d="M 722.5,48.5 C 728.758,48.1903 734.924,48.5236 741,49.5C 750.333,80.1667 759.667,110.833 769,141.5C 779.194,110.747 788.694,79.7474 797.5,48.5C 803.5,48.5 809.5,48.5 815.5,48.5C 803.707,87.8789 791.707,127.212 779.5,166.5C 772.578,166.812 765.744,166.479 759,165.5C 746.524,126.573 734.357,87.5729 722.5,48.5 Z"/></g>
<g><path style="opacity:0.902" fill="#000000" d="M 826.5,48.5 C 847.833,48.5 869.167,48.5 890.5,48.5C 890.5,53.5 890.5,58.5 890.5,63.5C 874.833,63.5 859.167,63.5 843.5,63.5C 843.5,74.5 843.5,85.5 843.5,96.5C 855.833,96.5 868.167,96.5 880.5,96.5C 880.5,101.833 880.5,107.167 880.5,112.5C 868.167,112.5 855.833,112.5 843.5,112.5C 843.5,125.5 843.5,138.5 843.5,151.5C 859.5,151.5 875.5,151.5 891.5,151.5C 891.5,156.5 891.5,161.5 891.5,166.5C 869.833,166.5 848.167,166.5 826.5,166.5C 826.5,127.167 826.5,87.8333 826.5,48.5 Z"/></g>
<g><path style="opacity:0.885" fill="#000000" d="M 907.5,48.5 C 921.504,48.3334 935.504,48.5001 949.5,49C 969.305,52.9835 978.972,65.1502 978.5,85.5C 977.648,98.711 971.981,109.211 961.5,117C 968.696,133.226 976.03,149.393 983.5,165.5C 976.858,166.664 970.192,166.831 963.5,166C 956.705,151.575 950.038,137.075 943.5,122.5C 937.202,121.504 930.868,121.17 924.5,121.5C 924.5,136.5 924.5,151.5 924.5,166.5C 918.833,166.5 913.167,166.5 907.5,166.5C 907.5,127.167 907.5,87.8333 907.5,48.5 Z M 924.5,63.5 C 933.72,63.1108 942.72,64.2774 951.5,67C 961.105,75.6221 962.938,85.7888 957,97.5C 953.453,101.714 948.953,104.214 943.5,105C 937.175,105.5 930.842,105.666 924.5,105.5C 924.5,91.5 924.5,77.5 924.5,63.5 Z"/></g>
<g><path style="opacity:0.905" fill="#000000" d="M 987.5,48.5 C 1012.5,48.5 1037.5,48.5 1062.5,48.5C 1062.5,53.5 1062.5,58.5 1062.5,63.5C 1052.83,63.5 1043.17,63.5 1033.5,63.5C 1033.5,97.8333 1033.5,132.167 1033.5,166.5C 1027.83,166.5 1022.17,166.5 1016.5,166.5C 1016.5,132.167 1016.5,97.8333 1016.5,63.5C 1006.83,63.5 997.167,63.5 987.5,63.5C 987.5,58.5 987.5,53.5 987.5,48.5 Z"/></g>
<g><path style="opacity:0.86" fill="#000000" d="M 403.5,81.5 C 426.897,80.3907 440.73,91.3907 445,114.5C 447.36,128.694 445.027,142.027 438,154.5C 424.203,169.856 408.036,172.69 389.5,163C 381.117,156.069 375.95,147.236 374,136.5C 370.257,117.613 375.09,101.446 388.5,88C 393.142,84.7399 398.142,82.5732 403.5,81.5 Z M 405.5,96.5 C 418.271,96.4284 425.771,102.762 428,115.5C 430.142,127.343 428.142,138.343 422,148.5C 406.068,157.851 395.734,153.517 391,135.5C 389.103,126.334 389.77,117.334 393,108.5C 395.44,102.557 399.607,98.5571 405.5,96.5 Z"/></g>
<g><path style="opacity:0.819" fill="#000000" d="M 637.5,105.5 C 652.833,105.5 668.167,105.5 683.5,105.5C 683.5,111.167 683.5,116.833 683.5,122.5C 668.167,122.5 652.833,122.5 637.5,122.5C 637.5,116.833 637.5,111.167 637.5,105.5 Z"/></g>
</svg>
